<svg width="78" height="60" viewBox="0 0 78 60" fill="none" xmlns="http://www.w3.org/2000/svg">
<g clip-path="url(#clip0_1506_294)">
<path d="M38.7932 60C37.8934 60.0148 36.9995 59.8557 36.162 59.5317L7.0148 47.6217H3.40139C1.39321 47.6217 -0.00390625 46.1061 -0.00390625 44.1417V30.6013C-0.00390625 28.6448 1.37465 27.1487 3.27016 27.0678L4.39422 25.7726C4.43001 25.7322 4.45917 25.6682 4.49894 25.6317C5.1406 24.9934 6.00975 24.6261 6.92201 24.6078H7.82205L22.7065 8.6726C22.96 8.4007 23.2686 8.18418 23.6125 8.03701C23.9564 7.88985 24.3278 7.81532 24.7027 7.81825C25.0678 7.8201 25.4288 7.89414 25.7642 8.03598C26.0996 8.17781 26.4026 8.38455 26.6553 8.6439L28.4262 10.47L37.0342 0.899987C37.2889 0.616141 37.6023 0.389067 37.9533 0.23394C38.3044 0.0788127 38.6851 -0.000793294 39.0699 0.000441392C39.4547 0.00167608 39.8349 0.0837233 40.1849 0.2411C40.5349 0.398476 40.8468 0.627556 41.0996 0.91303L49.4955 10.4348L51.1737 8.67651C51.4268 8.41243 51.7321 8.20196 52.0708 8.05797C52.4095 7.91399 52.7745 7.83952 53.1434 7.83912C53.5264 7.83448 53.9059 7.91067 54.2564 8.06254C54.607 8.21442 54.9203 8.43845 55.1755 8.71955L69.7245 24.6078H70.557C71.4831 24.6252 72.3652 24.9999 73.0132 25.6513C73.0503 25.6891 73.0874 25.7413 73.1232 25.7817L74.2194 27.0587C75.1374 27.1039 76.0016 27.4982 76.6297 28.1584C77.2579 28.8186 77.6008 29.6931 77.5863 30.5974V44.1417C77.5863 46.1061 76.0898 47.6217 74.0285 47.6217H70.4814L41.3289 59.5552C40.5221 59.8676 39.66 60.0188 38.7932 60Z" fill="white"/>
<path d="M74.0284 29.1352H73.2755L71.5748 27.1396C71.3096 26.8624 70.9446 26.6986 70.5581 26.6831H69.4579C69.2532 26.6806 69.0513 26.6355 68.8656 26.5508C68.6798 26.466 68.5144 26.3435 68.3802 26.1913L53.6496 10.0787C53.5876 10.0094 53.5117 9.95361 53.4267 9.91477C53.3416 9.87593 53.2493 9.85492 53.1556 9.85308C53.0618 9.85124 52.9687 9.86861 52.8821 9.90408C52.7956 9.93956 52.7175 9.99236 52.6528 10.0591L49.946 12.8935C49.8813 12.9606 49.8031 13.0136 49.7164 13.0492C49.6296 13.0848 49.5363 13.1022 49.4423 13.1003C49.3483 13.0983 49.2558 13.077 49.1707 13.0378C49.0855 12.9986 49.0097 12.9424 48.9479 12.8726L39.5658 2.23436C39.5023 2.16401 39.4245 2.1077 39.3373 2.06913C39.2501 2.03056 39.1557 2.01062 39.0601 2.01062C38.9645 2.01062 38.87 2.03056 38.7829 2.06913C38.6957 2.1077 38.6178 2.16401 38.5544 2.23436L28.9694 12.887C28.9077 12.9554 28.8322 13.0105 28.7477 13.0488C28.6633 13.0871 28.5717 13.1078 28.4787 13.1097C28.3857 13.1115 28.2934 13.0944 28.2074 13.0595C28.1215 13.0245 28.0438 12.9724 27.9793 12.9065L25.1957 10.037C25.1314 9.97124 25.0541 9.91924 24.9686 9.88419C24.883 9.84915 24.7911 9.83182 24.6984 9.83329C24.6058 9.83476 24.5144 9.85499 24.4301 9.89273C24.3457 9.93046 24.2702 9.98489 24.2081 10.0526L9.15668 26.2004C9.02256 26.35 8.85806 26.4702 8.67381 26.5533C8.48956 26.6364 8.28965 26.6806 8.08697 26.6831H6.92581C6.54427 26.6986 6.18368 26.8589 5.91972 27.1304L4.174 29.1352H3.40121C2.51575 29.1352 1.90601 29.7274 1.90601 30.6013V44.1418C1.90601 45.0157 2.51575 45.5465 3.40121 45.5465H7.64292V45.6248L36.9372 57.6326C38.106 58.1049 39.4151 58.1137 40.5904 57.6574L69.9431 45.6117V45.5465H74.0297C74.9138 45.5465 75.4878 45.0157 75.4878 44.1418V30.6013C75.4838 29.7274 74.9125 29.1352 74.0284 29.1352Z" fill="#201D1E"/>
<path d="M74.0284 29.1352H73.2755L71.5748 27.1396C71.3096 26.8624 70.9446 26.6986 70.5581 26.6831H69.4579C69.2532 26.6806 69.0513 26.6355 68.8656 26.5508C68.6798 26.466 68.5144 26.3435 68.3802 26.1913L53.6496 10.0787C53.5876 10.0094 53.5117 9.95361 53.4267 9.91477C53.3416 9.87593 53.2493 9.85492 53.1556 9.85308C53.0618 9.85124 52.9687 9.86861 52.8821 9.90408C52.7956 9.93956 52.7175 9.99236 52.6528 10.0591L49.946 12.8935C49.8813 12.9606 49.8031 13.0136 49.7164 13.0492C49.6296 13.0848 49.5363 13.1022 49.4423 13.1003C49.3483 13.0983 49.2558 13.077 49.1707 13.0378C49.0855 12.9986 49.0097 12.9424 48.9479 12.8726L39.5658 2.23436C39.5023 2.16401 39.4245 2.1077 39.3373 2.06913C39.2501 2.03056 39.1557 2.01062 39.0601 2.01062C38.9645 2.01062 38.87 2.03056 38.7829 2.06913C38.6957 2.1077 38.6178 2.16401 38.5544 2.23436L28.9694 12.887C28.9077 12.9554 28.8322 13.0105 28.7477 13.0488C28.6633 13.0871 28.5717 13.1078 28.4787 13.1097C28.3857 13.1115 28.2934 13.0944 28.2074 13.0595C28.1215 13.0245 28.0438 12.9724 27.9793 12.9065L25.1957 10.037C25.1314 9.97124 25.0541 9.91924 24.9686 9.88419C24.883 9.84915 24.7911 9.83182 24.6984 9.83329C24.6058 9.83476 24.5144 9.85499 24.4301 9.89273C24.3457 9.93046 24.2702 9.98489 24.2081 10.0526L9.15668 26.2004C9.02256 26.35 8.85806 26.4702 8.67381 26.5533C8.48956 26.6364 8.28965 26.6806 8.08697 26.6831H6.92581C6.54427 26.6986 6.18368 26.8589 5.91972 27.1304L4.174 29.1352H3.40121C2.51575 29.1352 1.90601 29.7274 1.90601 30.6013V44.1418C1.90601 45.0157 2.51575 45.5465 3.40121 45.5465H7.64292V45.6248L36.9372 57.6326C38.106 58.1049 39.4151 58.1137 40.5904 57.6574L69.9431 45.6117V45.5465H74.0297C74.9138 45.5465 75.4878 45.0157 75.4878 44.1418V30.6013C75.4838 29.7274 74.9125 29.1352 74.0284 29.1352Z" fill="#211E1F"/>
<path d="M25.0261 11.4404L26.801 13.6957C26.8305 13.733 26.8465 13.7789 26.8465 13.8261C26.8465 13.8733 26.8305 13.9192 26.801 13.9565L21.031 20.7391C20.9991 20.7772 20.955 20.8034 20.906 20.8136C20.8569 20.8238 20.8058 20.8173 20.761 20.7952C20.7162 20.773 20.6804 20.7366 20.6593 20.6919C20.6383 20.6471 20.6333 20.5966 20.6453 20.5487L21.1635 18.5909C21.1773 18.5485 21.1773 18.5029 21.1635 18.4604L20.7659 17.4365C20.7498 17.3919 20.7492 17.3433 20.764 17.2983C20.7789 17.2532 20.8084 17.2142 20.8481 17.1874L22.4387 16.11C22.471 16.0886 22.4967 16.059 22.5133 16.0243C22.5299 15.9896 22.5366 15.9512 22.5328 15.9131L22.4122 14.7457C22.4085 14.7083 22.4148 14.6707 22.4307 14.6365C22.4465 14.6024 22.4712 14.573 22.5023 14.5513L24.1248 13.4048C24.1594 13.3804 24.2003 13.3663 24.2428 13.3639C24.2853 13.3616 24.3276 13.3713 24.3647 13.3918L25.5259 14.0296L24.1447 12.2752C24.1138 12.236 24.0979 12.1873 24.0998 12.1377C24.1018 12.0881 24.1214 12.0407 24.1553 12.0039L24.6749 11.4287C24.6967 11.4033 24.7242 11.3831 24.7551 11.3697C24.786 11.3562 24.8196 11.3498 24.8534 11.3509C24.8872 11.352 24.9203 11.3607 24.9502 11.3762C24.9801 11.3917 25.0061 11.4137 25.0261 11.4404Z" fill="white"/>
<path d="M51.3631 13.77L52.8437 11.7509C52.8693 11.7162 52.9024 11.6875 52.9406 11.6669C52.9789 11.6463 53.0213 11.6343 53.0648 11.6318C53.1083 11.6293 53.1518 11.6364 53.1922 11.6525C53.2326 11.6685 53.2688 11.6932 53.2984 11.7248L59.5416 18.4187H59.2063C59.1353 18.4188 59.0666 18.3938 59.0127 18.3483L57.0244 16.6526C56.9817 16.6156 56.9288 16.5918 56.8724 16.5841C56.8161 16.5763 56.7586 16.585 56.7072 16.609C56.6557 16.6329 56.6125 16.6712 56.5829 16.7191C56.5534 16.7669 56.5386 16.8223 56.5406 16.8783L56.5565 17.2004C56.5581 17.259 56.5415 17.3166 56.5089 17.3657C56.4763 17.4147 56.4293 17.4528 56.3742 17.4749C56.3191 17.497 56.2584 17.502 56.2003 17.4894C56.1421 17.4767 56.0893 17.4469 56.0488 17.4039C55.5345 16.8548 54.8413 16.1309 54.8413 16.2104C54.8413 16.29 54.7684 16.7504 54.7167 17.0622C54.7098 17.1003 54.6951 17.1367 54.6734 17.1692C54.6518 17.2016 54.6238 17.2294 54.5909 17.2508C54.5581 17.2723 54.5212 17.287 54.4824 17.294C54.4437 17.301 54.4039 17.3003 54.3654 17.2917L53.3845 17.0843C53.3462 17.0763 53.3099 17.0605 53.278 17.0381C53.246 17.0156 53.2191 16.987 53.1989 16.9539L51.3538 14.0869C51.3223 14.0395 51.3063 13.9837 51.308 13.927C51.3096 13.8704 51.3289 13.8156 51.3631 13.77Z" fill="white"/>
<path d="M34.3511 11.8774L32.8652 13.7035C32.813 13.7676 32.7859 13.848 32.7888 13.9301C32.7917 14.0122 32.8245 14.0906 32.8811 14.1509L34.5778 15.977C34.6141 16.0158 34.6408 16.0624 34.6558 16.1131C34.6707 16.1638 34.6735 16.2172 34.664 16.2692L34.4651 17.3583C34.4547 17.4155 34.4592 17.4743 34.4783 17.5293C34.4973 17.5842 34.5302 17.6336 34.5738 17.6726L37.2885 20.1144C37.3566 20.1753 37.3974 20.2602 37.4021 20.3506C37.4069 20.441 37.3751 20.5295 37.3137 20.597L36.6867 21.2857C36.6533 21.3225 36.6125 21.352 36.5669 21.3724C36.5212 21.3929 36.4718 21.4037 36.4216 21.4044H35.3612C35.2981 21.4042 35.2361 21.4199 35.1809 21.45L34.6162 21.767C34.5606 21.7976 34.5146 21.8426 34.4831 21.897C34.4515 21.9515 34.4357 22.0134 34.4373 22.0761L34.5566 26.3622C34.5586 26.4275 34.5794 26.4909 34.6164 26.5452C34.6535 26.5994 34.7053 26.6422 34.766 26.6687L35.841 27.1435C35.9141 27.1758 35.9959 27.1835 36.0738 27.1653C36.1517 27.1472 36.2213 27.1042 36.2718 27.0431L39.758 22.7596C39.7891 22.7212 39.8278 22.6894 39.8719 22.6664C39.916 22.6434 39.9644 22.6296 40.0142 22.6258C40.0639 22.622 40.1139 22.6283 40.1611 22.6444C40.2082 22.6604 40.2515 22.6859 40.2882 22.7192L46.9159 28.6565C46.9598 28.6959 47.0129 28.724 47.0704 28.7384C47.128 28.7527 47.1883 28.7528 47.2459 28.7387L48.1884 28.5105C48.2654 28.4924 48.3341 28.4494 48.3833 28.3884C48.4326 28.3274 48.4596 28.2519 48.4601 28.1739V26.9231C48.46 26.8641 48.4445 26.8062 48.4151 26.7548L44.1561 19.3474C43.9454 18.9809 44.461 18.6352 44.7407 18.9561L51.7342 26.8696C51.7877 26.9297 51.8602 26.9704 51.94 26.985C52.0198 26.9997 52.1023 26.9875 52.1743 26.9505L54.5404 25.7348C54.5966 25.7056 54.6597 25.6915 54.7233 25.694C54.7868 25.6965 54.8486 25.7156 54.9022 25.7492L59.8968 28.8665C59.9591 28.9048 60.0318 28.9233 60.1051 28.9196C60.1784 28.9158 60.2487 28.89 60.3066 28.8456C60.3645 28.8012 60.4071 28.7403 60.4286 28.6713C60.4502 28.6022 60.4496 28.5283 60.4271 28.4596L60.1832 27.7826C60.168 27.741 60.1451 27.7025 60.1156 27.6692L39.4757 4.77394C39.4388 4.7337 39.3932 4.70223 39.3422 4.68189C39.2912 4.66154 39.2362 4.65287 39.1813 4.65651C39.1264 4.66015 39.0731 4.67602 39.0253 4.70292C38.9776 4.72981 38.9367 4.76703 38.9057 4.81176L38.231 5.80698C38.1833 5.87614 38.1634 5.9603 38.1753 6.04307L38.5889 9.01698C38.5958 9.06883 38.6149 9.11839 38.6445 9.16176L39.7911 10.8444C39.8288 10.9035 39.8475 10.9724 39.8449 11.0422C39.8422 11.1119 39.8184 11.1793 39.7764 11.2355C39.7344 11.2917 39.6762 11.3342 39.6093 11.3575C39.5425 11.3808 39.47 11.3838 39.4014 11.3661C39.3612 11.3557 39.3231 11.3384 39.2888 11.3152L38.0732 10.5092C38.0136 10.4689 37.9428 10.4475 37.8704 10.4478H36.2573C36.1954 10.4479 36.1345 10.4635 36.0804 10.4931C36.0264 10.5228 35.9809 10.5656 35.9484 10.6174L35.3387 11.6113C35.3029 11.6694 35.2508 11.716 35.1888 11.7457C35.1267 11.7753 35.0572 11.7866 34.9887 11.7783L34.6746 11.7431C34.6135 11.7366 34.5518 11.7456 34.4952 11.7691C34.4386 11.7926 34.389 11.8299 34.3511 11.8774Z" fill="white"/>
<path d="M64.3427 45.5465L39.0475 55.9813C38.8275 56.0482 38.5895 56.0276 38.3847 55.9239L13.0909 45.5465H11.5002L38.1567 56.5409C38.3323 56.6318 38.524 56.6885 38.7214 56.7078C38.9176 56.7078 39.1085 56.5865 39.2861 56.5135L65.9439 45.5465H64.3427Z" fill="#EA5400"/>
<path d="M72.8434 31.1283H49.4133C49.0472 31.1283 48.7505 31.4203 48.7505 31.7804V43.0344C48.7505 43.3945 49.0472 43.6865 49.4133 43.6865H72.8434C73.2094 43.6865 73.5062 43.3945 73.5062 43.0344V31.7804C73.5062 31.4203 73.2094 31.1283 72.8434 31.1283Z" fill="#EA5400"/>
<path d="M10.5023 43.1361L8.47425 38.8696H6.45016V43.1374H3.93164V31.6265H10.3446C11.8146 31.6265 12.8286 32.5539 12.8286 33.8961V36.5974C12.8286 37.6852 12.1659 38.5004 11.1147 38.7717L13.2104 43.1361H10.5023ZM10.3101 34.3435C10.3101 33.9926 10.1007 33.8009 9.71495 33.8009H6.45016V36.7252H9.71495C10.1007 36.7252 10.3101 36.5348 10.3101 36.1826V34.3435Z" fill="white"/>
<path d="M17.0452 31.6265H19.5637V43.1361H17.0452V31.6265Z" fill="white"/>
<path d="M29.9519 34.2796C29.9519 33.9287 29.7424 33.737 29.3567 33.737H26.8382C26.4525 33.737 26.243 33.9287 26.243 34.2796V35.3674C26.243 35.7183 26.4525 35.8304 26.8382 35.9113L30.091 36.5504C31.455 36.8218 32.6096 37.5731 32.6096 38.8513V40.9304C32.6096 42.2726 31.5955 43.2 30.1268 43.2H26.2099C24.7399 43.2 23.7258 42.2726 23.7258 40.9304V39.4591H26.1741V40.4831C26.1741 40.8339 26.3835 41.0257 26.7693 41.0257H29.4972C29.8816 41.0257 30.0924 40.8339 30.0924 40.4831V39.2674C30.0924 38.9152 29.8816 38.8044 29.4972 38.7248L26.2443 38.087C24.8804 37.8157 23.7258 37.0644 23.7258 35.7848V33.8322C23.7258 32.49 24.7399 31.5626 26.2099 31.5626H29.9214C31.3901 31.5626 32.4041 32.49 32.4041 33.8322V35.1757H29.9519V34.2796Z" fill="white"/>
<path d="M44.9941 31.6265V33.8009H39.2744V36.167H43.9137V38.34H39.2744V40.9565H44.9941V43.1309H36.7559V31.6265H44.9941Z" fill="white"/>
<path d="M57.5521 39.7278C57.5521 40.0004 57.3891 40.1491 57.0908 40.1491H54.9514C54.6532 40.1491 54.4901 40.0004 54.4901 39.7278V32.8696H52.5403V40.0761C52.5403 41.1196 53.325 41.8344 54.4636 41.8344H57.5786C58.7173 41.8344 59.5033 41.117 59.5033 40.0761V32.8696H57.5521V39.7278Z" fill="white"/>
<path d="M67.8342 32.8696H62.8489V41.7848H64.8001V38.6387H67.8342C68.9715 38.6387 69.7576 37.92 69.7576 36.8804V34.6265C69.7576 33.587 68.9715 32.8696 67.8342 32.8696ZM67.8077 34.9748V36.54C67.8077 36.8126 67.6447 36.9613 67.3464 36.9613H64.8001V34.5522H67.3464C67.6447 34.5522 67.8077 34.6957 67.8077 34.9735V34.9748Z" fill="white"/>
<path d="M34.5593 50.4326H33.6062L35.0895 45.8882H36.1645L37.6478 50.4326H36.6563L36.3567 49.41H34.8668L34.5593 50.4326ZM35.1226 48.5517H36.1075L35.621 46.8848L35.1226 48.5517Z" fill="white"/>
<path d="M42.5298 45.8883C42.6508 45.8824 42.7717 45.9017 42.8848 45.9447C42.9978 45.9877 43.1004 46.0535 43.1859 46.138C43.2715 46.2224 43.3381 46.3236 43.3815 46.4349C43.4249 46.5462 43.444 46.6653 43.4378 46.7843V47.4287C43.443 47.5674 43.4085 47.7048 43.3382 47.8252C43.2679 47.9456 43.1646 48.0441 43.0401 48.1096C43.176 48.1663 43.2916 48.2614 43.3726 48.3828C43.4535 48.5042 43.496 48.6465 43.4948 48.7917V49.5365C43.501 49.6556 43.4819 49.7746 43.4385 49.886C43.3951 49.9973 43.3285 50.0984 43.2429 50.1829C43.1574 50.2673 43.0548 50.3332 42.9418 50.3762C42.8287 50.4192 42.7078 50.4384 42.5868 50.4326H40.2021V45.8883H42.5298ZM42.3005 47.7065C42.4662 47.7065 42.5165 47.6687 42.5165 47.4913V46.9487C42.5204 46.9198 42.5174 46.8903 42.508 46.8627C42.4985 46.835 42.4828 46.8099 42.4619 46.7891C42.4411 46.7684 42.4157 46.7526 42.3877 46.7429C42.3598 46.7333 42.3299 46.73 42.3005 46.7335H41.1234V47.7065H42.3005ZM42.3508 49.5874C42.3803 49.5908 42.4102 49.5875 42.4382 49.5779C42.4663 49.5682 42.4917 49.5524 42.5126 49.5317C42.5336 49.511 42.5495 49.4859 42.5591 49.4582C42.5687 49.4306 42.5718 49.4012 42.5682 49.3722V48.72C42.5682 48.5309 42.4529 48.5178 42.274 48.5178H41.1234V49.5913L42.3508 49.5874Z" fill="white"/>
<path d="M29.0266 45.8882V49.5743H30.9579V50.4326H28.1067V45.8882H29.0266Z" fill="white"/>
<path d="M48.3145 46.9356C48.3178 46.9067 48.3146 46.8775 48.3048 46.85C48.2951 46.8225 48.2792 46.7976 48.2583 46.777C48.2374 46.7564 48.212 46.7408 48.1841 46.7312C48.1562 46.7216 48.1264 46.7184 48.0971 46.7217H47.1758C47.1464 46.7184 47.1167 46.7216 47.0888 46.7312C47.0609 46.7408 47.0355 46.7564 47.0146 46.777C46.9937 46.7976 46.9778 46.8225 46.9681 46.85C46.9583 46.8775 46.955 46.9067 46.9584 46.9356V47.3648C46.9584 47.5043 47.0353 47.5487 47.1758 47.58L48.3688 47.8317C48.8672 47.94 49.2887 48.2361 49.2887 48.7448V49.5652C49.295 49.6843 49.2758 49.8033 49.2324 49.9147C49.189 50.026 49.1224 50.1271 49.0369 50.2116C48.9513 50.296 48.8487 50.3619 48.7357 50.4049C48.6227 50.4479 48.5018 50.4671 48.3807 50.4613H46.9492C46.8281 50.4671 46.7072 50.4479 46.5942 50.4049C46.4812 50.3619 46.3786 50.296 46.293 50.2116C46.2075 50.1271 46.1408 50.026 46.0975 49.9147C46.0541 49.8033 46.0349 49.6843 46.0412 49.5652V48.9848H46.9359V49.3891C46.9323 49.4181 46.9354 49.4476 46.945 49.4752C46.9547 49.5028 46.9706 49.528 46.9915 49.5487C47.0124 49.5694 47.0378 49.5852 47.0659 49.5948C47.0939 49.6045 47.1238 49.6077 47.1533 49.6043H48.1514C48.1809 49.6077 48.2108 49.6045 48.2388 49.5948C48.2668 49.5852 48.2923 49.5694 48.3132 49.5487C48.3341 49.528 48.35 49.5028 48.3597 49.4752C48.3693 49.4476 48.3724 49.4181 48.3688 49.3891V48.9091C48.3688 48.7709 48.2919 48.7265 48.1514 48.6952L46.9584 48.4422C46.46 48.3352 46.0385 48.0378 46.0385 47.5291V46.7596C46.0323 46.6405 46.0514 46.5214 46.0948 46.4101C46.1382 46.2988 46.2048 46.1976 46.2904 46.1132C46.3759 46.0288 46.4785 45.9629 46.5915 45.9199C46.7045 45.8769 46.8255 45.8577 46.9465 45.8635H48.3012C48.4222 45.8577 48.5431 45.8769 48.6562 45.9199C48.7692 45.9629 48.8718 46.0288 48.9573 46.1132C49.0429 46.1976 49.1095 46.2988 49.1529 46.4101C49.1963 46.5214 49.2154 46.6405 49.2092 46.7596V47.2891H48.3145V46.9356Z" fill="white"/>
<path d="M70.5728 17.9739C70.5712 17.5563 70.6824 17.1458 70.8949 16.7844C71.1066 16.4211 71.412 16.1192 71.7802 15.9092C72.1483 15.6992 72.5663 15.5885 72.9919 15.5883C73.4162 15.5866 73.8336 15.6946 74.2023 15.9015C74.5709 16.1083 74.878 16.4068 75.0927 16.767C75.3074 17.1272 75.4222 17.5365 75.4257 17.9541C75.4293 18.3717 75.3213 18.7829 75.1127 19.1465C74.901 19.5135 74.5943 19.8187 74.2237 20.031C73.8531 20.2434 73.432 20.3552 73.0031 20.3552C72.5743 20.3552 72.1532 20.2434 71.7826 20.031C71.412 19.8187 71.1052 19.5135 70.8935 19.1465C70.6845 18.7899 70.5739 18.3856 70.5728 17.9739ZM70.9704 17.9739C70.9695 18.3252 71.0629 18.6705 71.2414 18.9748C71.4198 19.2791 71.6769 19.5315 71.9864 19.7064C72.296 19.8814 72.6471 19.9727 73.0041 19.971C73.3611 19.9693 73.7113 19.8748 74.0192 19.697C74.3267 19.5224 74.5819 19.2708 74.7588 18.9678C74.9804 18.5879 75.0688 18.1467 75.0103 17.7124C74.9518 17.2781 74.7497 16.8748 74.4352 16.5648C74.1207 16.2547 73.7113 16.0551 73.27 15.9967C72.8288 15.9383 72.3803 16.0244 71.9937 16.2418C71.6855 16.4153 71.4294 16.6659 71.2514 16.9683C71.0657 17.2718 70.968 17.6196 70.9691 17.9739H70.9704ZM73.9794 17.4091C73.9906 17.5683 73.9485 17.7268 73.8594 17.8601C73.7703 17.9935 73.6393 18.0944 73.4863 18.1474L74.2511 19.4074H73.5711L72.9521 18.3091H72.6605V19.4074H72.0507V16.5378H72.8951C73.2702 16.5378 73.5433 16.6096 73.7169 16.7531C73.8084 16.8356 73.8795 16.9376 73.9248 17.0513C73.97 17.165 73.9883 17.2874 73.9781 17.4091H73.9794ZM72.6618 17.85H72.8845C73.0146 17.8589 73.1433 17.8193 73.245 17.7391C73.2873 17.698 73.32 17.6484 73.341 17.5937C73.3621 17.539 73.3709 17.4805 73.367 17.4222C73.3738 17.3637 73.3668 17.3044 73.3466 17.249C73.3264 17.1936 73.2934 17.1435 73.2504 17.1026C73.1393 17.0339 73.0086 17.0023 72.8779 17.0126H72.6605L72.6618 17.85Z" fill="white"/>
</g>
<defs>
<clipPath id="clip0_1506_294">
<rect width="77.5862" height="60" fill="white"/>
</clipPath>
</defs>
</svg>
